<svg width="36" height="26" viewBox="0 0 36 26" fill="none" xmlns="http://www.w3.org/2000/svg">
<g clip-path="url(#clip0_6432_2619)">
<path fill-rule="evenodd" clip-rule="evenodd" d="M36 16.7681V7.00859H28.7999V16.7681C28.7999 19.826 24.0967 22.328 18.101 22.328C18.0671 22.328 18.0338 22.3274 17.9999 22.3273C17.9662 22.3273 17.9326 22.328 17.8987 22.328C11.9031 22.328 7.19978 19.826 7.19978 16.7681V7.00859H0V16.7681C0 21.8457 7.94336 26 17.899 26C17.9329 26 17.9662 25.9995 18.0001 25.9993C18.0338 25.9995 18.0674 26 18.1013 26C28.0569 26 36.0003 21.8457 36.0003 16.7681" fill="#154A80"/>
<path fill-rule="evenodd" clip-rule="evenodd" d="M21.6004 10.6808V7.00859H18.0003H14.4003V10.6808V16.7681H21.6004V10.6808Z" fill="#154A80"/>
<path d="M21.6004 0H14.4003V3.33642H21.6004V0Z" fill="#154A80"/>
</g>
<defs>
<clipPath id="clip0_6432_2619">
<rect width="36" height="26" fill="white"/>
</clipPath>
</defs>
</svg>
