<svg width="79" height="72" viewBox="0 0 79 72" fill="none" xmlns="http://www.w3.org/2000/svg">
<path d="M28.4079 52.6235C31.8276 62.3561 41.0993 69.3335 52.0006 69.3335C56.9202 69.3335 61.5075 67.9124 65.375 65.4582L70.6753 67.225C72.7109 67.9035 73.7302 68.243 74.407 68.0016C74.996 67.7916 75.4587 67.3279 75.6687 66.7389C75.9101 66.0621 75.5717 65.0443 74.8931 63.0087L73.1263 57.7082L73.7181 56.7266C75.8074 53.0738 77.0016 48.843 77.0016 44.3334C77.0016 30.5263 65.8071 19.3334 52 19.3334L51.0641 19.3507L50.5921 19.3757M27.0002 52.667C22.0806 52.667 17.4929 51.246 13.6252 48.792L8.32528 50.5588C6.28966 51.2374 5.27084 51.5763 4.59399 51.3349C4.00499 51.1249 3.54086 50.6613 3.33082 50.0722C3.08946 49.3954 3.42921 48.3776 4.10775 46.3419L5.87453 41.0416C3.42057 37.1738 2 32.5864 2 27.6667C2 13.8596 13.1929 2.66675 27 2.66675C40.8071 2.66675 52 13.8596 52 27.6667C52 41.4739 40.8074 52.667 27.0002 52.667Z" stroke="#0F160F" stroke-width="4" stroke-linecap="round" stroke-linejoin="round"/>
</svg>
