<svg width="213" height="26" viewBox="0 0 213 26" fill="none" xmlns="http://www.w3.org/2000/svg">
<g clip-path="url(#clip0_6432_2617)">
<path fill-rule="evenodd" clip-rule="evenodd" d="M36 16.7681V7.00859H28.7999V16.7681C28.7999 19.826 24.0967 22.328 18.101 22.328C18.0671 22.328 18.0338 22.3274 17.9999 22.3273C17.9662 22.3273 17.9326 22.328 17.8987 22.328C11.9031 22.328 7.19978 19.826 7.19978 16.7681V7.00859H0V16.7681C0 21.8457 7.94336 26 17.899 26C17.9329 26 17.9662 25.9995 18.0001 25.9993C18.0338 25.9995 18.0674 26 18.1013 26C28.0569 26 36.0003 21.8457 36.0003 16.7681" fill="#154A80"/>
<path fill-rule="evenodd" clip-rule="evenodd" d="M21.6004 10.6808V7.00859H18.0003H14.4003V10.6808V16.7681H21.6004V10.6808Z" fill="#154A80"/>
<path d="M21.6004 0H14.4003V3.33642H21.6004V0Z" fill="#154A80"/>
</g>
<path d="M63.29 14.7227C63.29 17.2622 62.712 19.1478 61.556 20.3797C60.4094 21.6115 58.5474 22.2274 55.97 22.2274C54.2455 22.2274 52.8715 21.9621 51.8481 21.4315C50.8247 20.8913 50.0904 20.067 49.645 18.9583C49.1997 17.8496 48.977 16.4378 48.977 14.7227V5.3133C48.2284 5.0385 47.693 4.71159 47.3708 4.33256L47.6551 1.91626H54.4776L54.7619 4.33256C54.4492 4.70212 53.9186 5.02903 53.17 5.3133V14.8364C53.17 16.2388 53.3974 17.2764 53.8522 17.9491C54.3071 18.6124 55.1267 18.9441 56.3112 18.9441C57.4956 18.9441 58.3295 18.603 58.8128 17.9207C59.296 17.229 59.5376 16.2009 59.5376 14.8364V5.3133C58.7322 5.02903 58.1968 4.70212 57.9315 4.33256L58.23 1.91626H64.5977L64.8962 4.33256C64.5835 4.70212 64.0481 5.02903 63.29 5.3133V14.7227ZM75.2294 5.08588C74.5661 4.91532 73.8791 4.83004 73.1684 4.83004C72.4483 4.83004 71.8703 5.00534 71.4344 5.35594C70.989 5.71601 70.7663 6.22296 70.7663 6.87679C70.7663 7.53061 70.9322 8.0423 71.2638 8.41185C71.5955 8.77193 72.2446 9.08936 73.2111 9.36416L75.8122 10.1175C77.2051 10.5249 78.3137 11.1645 79.1381 12.0363C79.9625 12.8986 80.3747 14.1636 80.3747 15.8313C80.3747 17.1484 80.0478 18.2855 79.394 19.2426C78.7401 20.1996 77.8494 20.9387 76.7218 21.4599C75.6037 21.9716 74.3387 22.2274 72.9268 22.2274C71.7613 22.2274 70.5626 22.0805 69.3308 21.7868C68.0989 21.4836 67.0756 21.0619 66.2607 20.5218V19.8395C66.2607 19.6216 66.2891 19.29 66.3459 18.8446C66.4123 18.3992 66.5023 17.9349 66.616 17.4517C66.7392 16.9589 66.8813 16.542 67.0424 16.2009H69.814C70.1267 16.8168 70.3115 17.6222 70.3684 18.6172C71.0222 18.9109 71.8134 19.0578 72.742 19.0578C73.6422 19.0578 74.3813 18.8446 74.9593 18.4182C75.5468 17.9918 75.8406 17.3806 75.8406 16.5846C75.8406 16.2056 75.8122 15.8977 75.7553 15.6608C75.6984 15.4144 75.5184 15.1538 75.2152 14.879C74.912 14.6042 74.4808 14.3768 73.9218 14.1968L70.9227 13.3297C67.8715 12.4674 66.3459 10.5249 66.3459 7.50218C66.3459 6.3272 66.6349 5.30382 67.213 4.43206C67.8005 3.56029 68.6154 2.88278 69.6577 2.39952C70.7 1.91626 71.9129 1.67463 73.2964 1.67463C75.3715 1.67463 77.3946 2.14368 79.3655 3.08177V3.74981C79.3655 3.96775 79.3324 4.30414 79.266 4.75897C79.2092 5.20433 79.1192 5.66864 78.996 6.1519C78.8823 6.63516 78.7401 7.04735 78.5696 7.38848H75.8122C75.4805 6.91469 75.2863 6.14716 75.2294 5.08588ZM93.5933 16.6699L95.7538 16.94V22H82.2367L81.9524 19.5837C82.2083 19.252 82.7436 18.9299 83.5585 18.6172V5.3133C82.7531 5.02903 82.2177 4.70212 81.9524 4.33256L82.2367 1.91626H95.5121V6.97628L93.3659 7.24634C92.9111 6.85784 92.551 6.13768 92.2857 5.08588H87.7515V10.089H91.7882C92.0251 9.52051 92.2667 9.11305 92.5131 8.86668L94.3466 9.07989V14.2536L92.5131 14.4952C92.2762 14.2963 92.0345 13.8888 91.7882 13.2729H87.7515V18.8304H92.5131C92.7689 17.807 93.129 17.0869 93.5933 16.6699ZM105.362 22H97.9284L97.6442 19.5837C97.9 19.252 98.4354 18.9299 99.2503 18.6172V5.3133C98.4449 5.02903 97.9095 4.70212 97.6442 4.33256L97.9284 1.91626H104.424C106.509 1.91626 108.314 2.3095 109.839 3.09598C111.365 3.87299 112.54 5.02903 113.364 6.56409C114.198 8.08968 114.615 9.98008 114.615 12.2353C114.615 14.4905 114.241 16.3383 113.492 17.7786C112.744 19.2189 111.678 20.2849 110.294 20.9766C108.911 21.6589 107.267 22 105.362 22ZM104.751 5.08588H103.443V18.8304H105.533C106.509 18.8304 107.347 18.6456 108.048 18.2761C108.75 17.897 109.29 17.2385 109.669 16.3004C110.057 15.3623 110.252 14.0499 110.252 12.3632C110.252 7.51166 108.418 5.08588 104.751 5.08588ZM126.825 19.5837L126.54 22H119.732L119.434 19.5837C119.689 19.252 120.225 18.9299 121.04 18.6172V15.277L116.292 5.41279C115.373 5.10009 114.753 4.74002 114.43 4.33256L114.686 2.0584V2.02997L114.715 1.91626H121.537L121.821 4.33256C121.585 4.67369 121.139 4.9627 120.485 5.19959L121.48 7.44533C122.039 8.7435 122.523 10.0132 122.93 11.2546L123.129 11.8373H123.57C123.778 11.1361 124.015 10.4207 124.28 9.69107C124.546 8.95197 124.844 8.20339 125.176 7.44533L126.1 5.3133C125.332 5.01955 124.811 4.69264 124.536 4.33256L124.82 1.91626H131.458L131.757 4.33256C131.378 4.76845 130.733 5.138 129.824 5.44122L125.233 15.277V18.6172C126 18.9204 126.531 19.2426 126.825 19.5837Z" fill="#154A80"/>
<defs>
<clipPath id="clip0_6432_2617">
<rect width="36" height="26" fill="white"/>
</clipPath>
</defs>
</svg>
