<svg xmlns="http://www.w3.org/2000/svg" fill="none" viewBox="77.958 0 134.403 32.838235294117645" style="max-height: 500px" width="134.403" height="32.838235294117645">
<g clip-path="url(#clip0_4402_1511)">
<path fill="white" d="M123.084 16.7681V7.00854H115.884V16.7681C115.884 19.826 111.181 22.3279 105.185 22.3279C105.151 22.3279 105.118 22.3274 105.084 22.3272C105.05 22.3272 105.017 22.3279 104.983 22.3279C98.987 22.3279 94.2838 19.826 94.2838 16.7681V7.00854H87.084V16.7681C87.084 21.8457 95.0273 26 104.983 26C105.017 26 105.05 25.9994 105.084 25.9993C105.118 25.9994 105.151 26 105.185 26C115.141 26 123.084 21.8457 123.084 16.7681" clip-rule="evenodd" fill-rule="evenodd"/>
<path fill="white" d="M108.684 10.6807V7.00854H105.084H101.484V10.6807V16.7681H108.684V10.6807Z" clip-rule="evenodd" fill-rule="evenodd"/>
<path fill="white" d="M108.684 0H101.484V3.33642H108.684V0Z"/>
</g>
<path fill="white" d="M150.374 14.7227C150.374 17.2622 149.796 19.1478 148.64 20.3797C147.493 21.6115 145.631 22.2274 143.054 22.2274C141.329 22.2274 139.955 21.9621 138.932 21.4315C137.909 20.8913 137.174 20.067 136.729 18.9583C136.284 17.8496 136.061 16.4378 136.061 14.7227V5.3133C135.312 5.0385 134.777 4.71159 134.455 4.33256L134.739 1.91626H141.562L141.846 4.33256C141.533 4.70212 141.003 5.02903 140.254 5.3133V14.8364C140.254 16.2388 140.481 17.2764 140.936 17.9491C141.391 18.6124 142.211 18.9441 143.395 18.9441C144.58 18.9441 145.413 18.603 145.897 17.9207C146.38 17.229 146.622 16.2009 146.622 14.8364V5.3133C145.816 5.02903 145.281 4.70212 145.015 4.33256L145.314 1.91626H151.682L151.98 4.33256C151.667 4.70212 151.132 5.02903 150.374 5.3133V14.7227ZM159.016 9.83321C157.737 9.83321 157.097 10.2122 157.097 10.9703C157.097 11.6904 157.77 12.2211 159.115 12.5622L161.404 13.1734C163.773 13.7988 164.957 15.168 164.957 17.2811C164.957 18.7309 164.45 19.9201 163.436 20.8487C162.925 21.3035 162.238 21.6447 161.375 21.8721C160.513 22.09 159.584 22.2085 158.589 22.2274C157.604 22.2464 156.647 22.1753 155.718 22.0142C154.79 21.8531 154.008 21.6162 153.373 21.3035C153.364 21.1993 153.354 21.0951 153.345 20.9908C153.345 20.8771 153.345 20.7682 153.345 20.6639C153.345 19.5932 153.558 18.6314 153.984 17.7786H156.401C156.666 18.2618 156.832 18.7451 156.898 19.2284C157.268 19.3515 157.822 19.4131 158.561 19.4131C160.267 19.4131 161.119 18.9251 161.119 17.9491C161.119 17.6459 161.006 17.3901 160.778 17.1816C160.532 16.9826 160.072 16.7836 159.4 16.5846L157.097 15.9166C155.913 15.585 154.989 15.097 154.325 14.4526C153.672 13.7988 153.345 12.837 153.345 11.5673C153.345 10.288 153.861 9.24571 154.894 8.44028C155.406 8.03282 156.045 7.7296 156.813 7.53061C157.59 7.33162 158.419 7.22739 159.3 7.21791C160.181 7.19896 161.044 7.26529 161.887 7.4169C162.73 7.55904 163.484 7.77224 164.147 8.05651C164.156 8.15127 164.161 8.24603 164.161 8.34078C164.171 8.43554 164.175 8.53503 164.175 8.63927C164.175 9.63422 163.962 10.5676 163.536 11.4393H161.148C160.883 10.975 160.717 10.506 160.65 10.0322C160.091 9.89954 159.546 9.83321 159.016 9.83321ZM173.329 22.2274C170.998 22.2274 169.245 21.6068 168.07 20.3654C166.895 19.1241 166.307 17.319 166.307 14.9501C166.307 13.5193 166.511 12.2874 166.919 11.2546C167.326 10.2122 167.88 9.4068 168.582 8.83826C169.937 7.75803 171.519 7.21791 173.329 7.21791C174.532 7.21791 175.546 7.4169 176.371 7.81488C177.204 8.20339 177.835 8.86195 178.261 9.79056C178.697 10.7097 178.915 11.9652 178.915 13.5572C178.915 14.9596 178.223 15.6608 176.84 15.6608H170.529C170.605 16.8831 170.917 17.7454 171.467 18.2476C172.026 18.7498 172.907 19.0009 174.111 19.0009C174.764 19.0009 175.39 18.9251 175.987 18.7735C176.593 18.6124 177.034 18.4561 177.309 18.3045L177.721 18.0771L178.588 20.3939C178.484 20.5171 178.318 20.6876 178.09 20.9056C177.939 21.0477 177.631 21.223 177.167 21.4315C176.702 21.6399 176.134 21.8247 175.461 21.9858C174.798 22.1469 174.087 22.2274 173.329 22.2274ZM170.557 13.2445L175.162 13.0597C175.2 12.8228 175.219 12.4959 175.219 12.0789C175.219 11.6904 175.063 11.2782 174.75 10.8424C174.438 10.4065 173.897 10.1885 173.13 10.1885C172.362 10.1885 171.775 10.4207 171.367 10.885C170.96 11.3493 170.69 12.1358 170.557 13.2445ZM187.685 3.57925L187.969 1.33351C189.077 1.07766 190.139 0.949739 191.153 0.949739C192.157 0.949739 193.019 0.978167 193.74 1.03502V18.5035C194.337 18.6077 194.872 18.7735 195.346 19.0009V21.3035C194.171 21.9195 192.692 22.2274 190.911 22.2274C190.722 22.1327 190.532 21.9621 190.342 21.7157C190.162 21.4599 190.063 21.2135 190.044 20.9766C189.618 21.3272 189.063 21.6257 188.381 21.8721C187.699 22.109 187.031 22.2274 186.377 22.2274C184.283 22.2274 182.762 21.6636 181.814 20.536C180.876 19.3989 180.407 17.5369 180.407 14.9501C180.407 12.0221 181.127 9.96587 182.568 8.7814C183.837 7.73908 185.387 7.21791 187.216 7.21791C188.011 7.21791 188.826 7.31267 189.66 7.50218V4.61683C188.779 4.37994 188.12 4.03408 187.685 3.57925ZM186.988 19.2568C188.106 19.2568 188.997 18.9299 189.66 18.2761V10.4728C188.845 10.2833 188.002 10.1885 187.13 10.1885C186.24 10.1885 185.595 10.577 185.197 11.3541C184.799 12.1311 184.6 13.306 184.6 14.879C184.6 16.4425 184.794 17.5654 185.183 18.2476C185.571 18.9204 186.173 19.2568 186.988 19.2568ZM200.079 25.3828H200.491C200.842 25.3828 201.216 25.0559 201.614 24.4021C202.012 23.7483 202.287 22.976 202.438 22.0853L197.662 10.7997C196.715 10.487 196.075 10.1175 195.744 9.69107L196.028 7.44533H202.737L203.021 9.69107C202.756 9.99429 202.329 10.2738 201.742 10.5297L203.348 14.9217C203.689 15.8503 203.931 16.7552 204.073 17.6364L204.158 18.0344H204.57C204.731 17.0584 205.001 16.0398 205.38 14.9785L206.915 10.6718C206.214 10.4065 205.712 10.0796 205.409 9.69107L205.693 7.44533H212.103L212.388 9.69107C212.037 10.1364 211.397 10.5155 210.469 10.8282L205.665 22.1706C204.755 24.3405 204.059 25.7287 203.575 26.3351C202.722 27.4817 201.533 28.055 200.008 28.055C198.482 28.055 197.321 27.657 196.525 26.861C196.516 26.7663 196.506 26.6668 196.497 26.5625C196.497 26.4678 196.497 26.373 196.497 26.2783C196.497 25.2265 196.72 24.2173 197.165 23.2508H199.581C199.866 23.7625 200.031 24.4732 200.079 25.3828Z"/>
<defs>
<clipPath id="clip0_4402_1511">
<rect transform="translate(87.084)" fill="white" height="26" width="36"/>
</clipPath>
</defs>
</svg>